#include "keymap.sfz"

<global>
loop_mode=one_shot
amp_veltrack=100
amp_velcurve_1=0.4
polyphony=3


<group>
key=$LOW_FLOOR_TOM_KEY

<region>
sample=samples/toms/black_cortex_floor_tom_22_ctr_a_01.wav
hivel=14
seq_length=2

<region>
sample=samples/toms/black_cortex_floor_tom_22_ctr_b_01.wav
hivel=14
seq_length=2
seq_position=2

<region>
sample=samples/toms/black_cortex_floor_tom_22_ctr_a_02.wav
lovel=14
hivel=28
seq_length=2

<region>
sample=samples/toms/black_cortex_floor_tom_22_ctr_b_02.wav
lovel=14
hivel=28
seq_length=2
seq_position=2

<region>
sample=samples/toms/black_cortex_floor_tom_22_ctr_a_03.wav
lovel=28
hivel=42
seq_length=2

<region>
sample=samples/toms/black_cortex_floor_tom_22_ctr_b_03.wav
lovel=28
hivel=42
seq_length=2
seq_position=2

<region>
sample=samples/toms/black_cortex_floor_tom_22_ctr_a_04.wav
lovel=42
hivel=56
seq_length=2

<region>
sample=samples/toms/black_cortex_floor_tom_22_ctr_b_04.wav
lovel=42
hivel=56
seq_length=2
seq_position=2

<region>
sample=samples/toms/black_cortex_floor_tom_22_ctr_a_05.wav
lovel=56
hivel=70
seq_length=2

<region>
sample=samples/toms/black_cortex_floor_tom_22_ctr_b_05.wav
lovel=56
hivel=70
seq_length=2
seq_position=2

<region>
sample=samples/toms/black_cortex_floor_tom_22_ctr_a_06.wav
lovel=70
hivel=84
seq_length=2

<region>
sample=samples/toms/black_cortex_floor_tom_22_ctr_b_06.wav
lovel=70
hivel=84
seq_length=2
seq_position=2

<region>
sample=samples/toms/black_cortex_floor_tom_22_ctr_a_07.wav
lovel=84
hivel=98
seq_length=2

<region>
sample=samples/toms/black_cortex_floor_tom_22_ctr_b_07.wav
lovel=84
hivel=98
seq_length=2
seq_position=2

<region>
sample=samples/toms/black_cortex_floor_tom_22_ctr_a_08.wav
lovel=98
hivel=112
seq_length=2

<region>
sample=samples/toms/black_cortex_floor_tom_22_ctr_b_08.wav
lovel=98
hivel=112
seq_length=2
seq_position=2

<region>
sample=samples/toms/black_cortex_floor_tom_22_ctr_a_09.wav
lovel=112
seq_length=2

<region>
sample=samples/toms/black_cortex_floor_tom_22_ctr_b_09.wav
lovel=112
seq_length=2
seq_position=2



<group>
key=$HIGH_FLOOR_TOM_KEY

<region>
sample=samples/toms/black_cortex_floor_tom_18_ctr_a_01.wav
hivel=14
seq_length=2

<region>
sample=samples/toms/black_cortex_floor_tom_18_ctr_b_01.wav
hivel=14
seq_length=2
seq_position=2

<region>
sample=samples/toms/black_cortex_floor_tom_18_ctr_a_02.wav
lovel=14
hivel=28
seq_length=2

<region>
sample=samples/toms/black_cortex_floor_tom_18_ctr_b_02.wav
lovel=14
hivel=28
seq_length=2
seq_position=2

<region>
sample=samples/toms/black_cortex_floor_tom_18_ctr_a_03.wav
lovel=28
hivel=42
seq_length=2

<region>
sample=samples/toms/black_cortex_floor_tom_18_ctr_b_03.wav
lovel=28
hivel=42
seq_length=2
seq_position=2

<region>
sample=samples/toms/black_cortex_floor_tom_18_ctr_a_04.wav
lovel=42
hivel=56
seq_length=2

<region>
sample=samples/toms/black_cortex_floor_tom_18_ctr_b_04.wav
lovel=42
hivel=56
seq_length=2
seq_position=2

<region>
sample=samples/toms/black_cortex_floor_tom_18_ctr_a_05.wav
lovel=56
hivel=70
seq_length=2

<region>
sample=samples/toms/black_cortex_floor_tom_18_ctr_b_05.wav
lovel=56
hivel=70
seq_length=2
seq_position=2

<region>
sample=samples/toms/black_cortex_floor_tom_18_ctr_a_06.wav
lovel=70
hivel=84
seq_length=2

<region>
sample=samples/toms/black_cortex_floor_tom_18_ctr_b_06.wav
lovel=70
hivel=84
seq_length=2
seq_position=2

<region>
sample=samples/toms/black_cortex_floor_tom_18_ctr_a_07.wav
lovel=84
hivel=98
seq_length=2

<region>
sample=samples/toms/black_cortex_floor_tom_18_ctr_b_07.wav
lovel=84
hivel=98
seq_length=2
seq_position=2

<region>
sample=samples/toms/black_cortex_floor_tom_18_ctr_a_08.wav
lovel=98
hivel=112
seq_length=2

<region>
sample=samples/toms/black_cortex_floor_tom_18_ctr_b_08.wav
lovel=98
hivel=112
seq_length=2
seq_position=2

<region>
sample=samples/toms/black_cortex_floor_tom_18_ctr_a_09.wav
lovel=112
seq_length=2

<region>
sample=samples/toms/black_cortex_floor_tom_18_ctr_b_09.wav
lovel=112
seq_length=2
seq_position=2



<group>
key=$LOW_RACK_TOM_KEY

<region>
sample=samples/toms/black_cortex_tom_14_ctr_a_01.wav
hivel=14
seq_length=2

<region>
sample=samples/toms/black_cortex_tom_14_ctr_b_01.wav
hivel=14
seq_length=2
seq_position=2

<region>
sample=samples/toms/black_cortex_tom_14_ctr_a_02.wav
lovel=14
hivel=28
seq_length=2

<region>
sample=samples/toms/black_cortex_tom_14_ctr_b_02.wav
lovel=14
hivel=28
seq_length=2
seq_position=2

<region>
sample=samples/toms/black_cortex_tom_14_ctr_a_03.wav
lovel=28
hivel=42
seq_length=2

<region>
sample=samples/toms/black_cortex_tom_14_ctr_b_03.wav
lovel=28
hivel=42
seq_length=2
seq_position=2

<region>
sample=samples/toms/black_cortex_tom_14_ctr_a_04.wav
lovel=42
hivel=56
seq_length=2

<region>
sample=samples/toms/black_cortex_tom_14_ctr_b_04.wav
lovel=42
hivel=56
seq_length=2
seq_position=2

<region>
sample=samples/toms/black_cortex_tom_14_ctr_a_05.wav
lovel=56
hivel=70
seq_length=2

<region>
sample=samples/toms/black_cortex_tom_14_ctr_b_05.wav
lovel=56
hivel=70
seq_length=2
seq_position=2

<region>
sample=samples/toms/black_cortex_tom_14_ctr_a_06.wav
lovel=70
hivel=84
seq_length=2

<region>
sample=samples/toms/black_cortex_tom_14_ctr_b_06.wav
lovel=70
hivel=84
seq_length=2
seq_position=2

<region>
sample=samples/toms/black_cortex_tom_14_ctr_a_07.wav
lovel=84
hivel=98
seq_length=2

<region>
sample=samples/toms/black_cortex_tom_14_ctr_b_07.wav
lovel=84
hivel=98
seq_length=2
seq_position=2

<region>
sample=samples/toms/black_cortex_tom_14_ctr_a_08.wav
lovel=98
hivel=112
seq_length=2

<region>
sample=samples/toms/black_cortex_tom_14_ctr_b_08.wav
lovel=98
hivel=112
seq_length=2
seq_position=2

<region>
sample=samples/toms/black_cortex_tom_14_ctr_a_09.wav
lovel=112
seq_length=2

<region>
sample=samples/toms/black_cortex_tom_14_ctr_b_09.wav
lovel=112
seq_length=2
seq_position=2



<group>
key=$MID_RACK_TOM_KEY

<region>
sample=samples/toms/black_cortex_tom_13_ctr_a_01.wav
hivel=10
seq_length=2

<region>
sample=samples/toms/black_cortex_tom_13_ctr_b_01.wav
hivel=10
seq_length=2
seq_position=2

<region>
sample=samples/toms/black_cortex_tom_13_ctr_a_02.wav
lovel=10
hivel=21
seq_length=2

<region>
sample=samples/toms/black_cortex_tom_13_ctr_b_02.wav
lovel=10
hivel=21
seq_length=2
seq_position=2

<region>
sample=samples/toms/black_cortex_tom_13_ctr_a_03.wav
lovel=21
hivel=31
seq_length=2

<region>
sample=samples/toms/black_cortex_tom_13_ctr_b_03.wav
lovel=21
hivel=31
seq_length=2
seq_position=2

<region>
sample=samples/toms/black_cortex_tom_13_ctr_a_04.wav
lovel=31
hivel=42
seq_length=2

<region>
sample=samples/toms/black_cortex_tom_13_ctr_b_04.wav
lovel=31
hivel=42
seq_length=2
seq_position=2

<region>
sample=samples/toms/black_cortex_tom_13_ctr_a_05.wav
lovel=42
hivel=52
seq_length=2

<region>
sample=samples/toms/black_cortex_tom_13_ctr_b_05.wav
lovel=42
hivel=52
seq_length=2
seq_position=2

<region>
sample=samples/toms/black_cortex_tom_13_ctr_a_06.wav
lovel=52
hivel=63
seq_length=2

<region>
sample=samples/toms/black_cortex_tom_13_ctr_b_06.wav
lovel=52
hivel=63
seq_length=2
seq_position=2

<region>
sample=samples/toms/black_cortex_tom_13_ctr_a_07.wav
lovel=63
hivel=74
seq_length=2

<region>
sample=samples/toms/black_cortex_tom_13_ctr_b_07.wav
lovel=63
hivel=74
seq_length=2
seq_position=2

<region>
sample=samples/toms/black_cortex_tom_13_ctr_a_08.wav
lovel=74
hivel=84
seq_length=2

<region>
sample=samples/toms/black_cortex_tom_13_ctr_b_08.wav
lovel=74
hivel=84
seq_length=2
seq_position=2

<region>
sample=samples/toms/black_cortex_tom_13_ctr_a_09.wav
lovel=84
hivel=95
seq_length=2

<region>
sample=samples/toms/black_cortex_tom_13_ctr_b_09.wav
lovel=84
hivel=95
seq_length=2
seq_position=2

<region>
sample=samples/toms/black_cortex_tom_13_ctr_a_10.wav
lovel=95
hivel=105
seq_length=2

<region>
sample=samples/toms/black_cortex_tom_13_ctr_b_10.wav
lovel=95
hivel=105
seq_length=2
seq_position=2

<region>
sample=samples/toms/black_cortex_tom_13_ctr_a_11.wav
lovel=105
hivel=116
seq_length=2

<region>
sample=samples/toms/black_cortex_tom_13_ctr_b_11.wav
lovel=105
hivel=116
seq_length=2
seq_position=2

<region>
sample=samples/toms/black_cortex_tom_13_ctr_a_12.wav
lovel=116
seq_length=2

<region>
sample=samples/toms/black_cortex_tom_13_ctr_b_12.wav
lovel=116
seq_length=2
seq_position=2



<group>
key=$HIGH_RACK_TOM_KEY

<region>
sample=samples/toms/black_cortex_tom_12_ctr_a_01.wav
hivel=12
seq_length=2

<region>
sample=samples/toms/black_cortex_tom_12_ctr_b_01.wav
hivel=12
seq_length=2
seq_position=2

<region>
sample=samples/toms/black_cortex_tom_12_ctr_a_02.wav
lovel=12
hivel=25
seq_length=2

<region>
sample=samples/toms/black_cortex_tom_12_ctr_b_02.wav
lovel=12
hivel=25
seq_length=2
seq_position=2

<region>
sample=samples/toms/black_cortex_tom_12_ctr_a_03.wav
lovel=25
hivel=38
seq_length=2

<region>
sample=samples/toms/black_cortex_tom_12_ctr_b_03.wav
lovel=25
hivel=38
seq_length=2
seq_position=2

<region>
sample=samples/toms/black_cortex_tom_12_ctr_a_04.wav
lovel=38
hivel=50
seq_length=2

<region>
sample=samples/toms/black_cortex_tom_12_ctr_b_04.wav
lovel=38
hivel=50
seq_length=2
seq_position=2

<region>
sample=samples/toms/black_cortex_tom_12_ctr_a_05.wav
lovel=50
hivel=63
seq_length=2

<region>
sample=samples/toms/black_cortex_tom_12_ctr_b_05.wav
lovel=50
hivel=63
seq_length=2
seq_position=2

<region>
sample=samples/toms/black_cortex_tom_12_ctr_a_06.wav
lovel=63
hivel=76
seq_length=2

<region>
sample=samples/toms/black_cortex_tom_12_ctr_b_06.wav
lovel=63
hivel=76
seq_length=2
seq_position=2

<region>
sample=samples/toms/black_cortex_tom_12_ctr_a_07.wav
lovel=76
hivel=88
seq_length=2

<region>
sample=samples/toms/black_cortex_tom_12_ctr_b_07.wav
lovel=76
hivel=88
seq_length=2
seq_position=2

<region>
sample=samples/toms/black_cortex_tom_12_ctr_a_08.wav
lovel=88
hivel=101
seq_length=2

<region>
sample=samples/toms/black_cortex_tom_12_ctr_b_08.wav
lovel=88
hivel=101
seq_length=2
seq_position=2

<region>
sample=samples/toms/black_cortex_tom_12_ctr_a_09.wav
lovel=101
hivel=114
seq_length=2

<region>
sample=samples/toms/black_cortex_tom_12_ctr_b_09.wav
lovel=101
hivel=114
seq_length=2
seq_position=2

<region>
sample=samples/toms/black_cortex_tom_12_ctr_a_10.wav
lovel=114
seq_length=2

<region>
sample=samples/toms/black_cortex_tom_12_ctr_b_10.wav
lovel=114
seq_length=2
seq_position=2
